Coordinates
version=1
nRows=12
nColumns=33
inDegrees=yes

Units are S.I. units (second, meters, Newtons, ...)
Angles are in degrees.

endheader
time	ground_thorax_rot_x	ground_thorax_rot_y	ground_thorax_rot_z	ground_thorax_tx	ground_thorax_ty	ground_thorax_tz	clav_prot_r	clav_elev_r	scapula_abduction_r	scapula_elevation_r	scapula_upward_rot_r	scapula_winging_r	shoulder_elv_r	plane_of_elev_r	axial_rot_r	elbow_flexion_r	pro_sup_r	wrist_flex_r	wrist_dev_r	clav_prot_l	clav_elev_l	scapula_abduction_l	scapula_elevation_l	scapula_upward_rot_l	scapula_winging_l	shoulder_elv_l	plane_of_elev_l	axial_rot_l	elbow_flexion_l	pro_sup_l	wrist_flex_l	wrist_dev_l	
1.4700	1.354794	-1.135118	-8.008425	-0.083007	1.048861	0.001861	-13.623421	-7.054683	-14.216421	-1.078384	6.317607	0.297266	53.058587	-49.742982	61.337101	57.503936	5.950187	17.319874	5.092000	-7.899681	-4.035828	8.116018	-4.792412	-4.974135	-1.652353	53.265257	-54.210408	-41.606886	56.616632	6.435834	1.578128	-25.000000	
1.4800	1.341631	-1.153220	-7.975786	-0.083143	1.048883	0.001906	-13.642091	-7.063579	-14.251962	-1.083683	6.307080	0.305295	53.054770	-49.746255	61.339860	57.476947	6.001941	17.348373	5.058059	-7.911930	-4.059496	8.150260	-4.788982	-5.023579	-1.672553	53.248366	-54.218411	-41.616424	56.607069	6.494862	1.511890	-25.000000	
1.4900	1.324913	-1.165378	-7.939925	-0.083288	1.048899	0.001945	-13.654181	-7.069469	-14.274841	-1.087281	6.300442	0.310441	53.045939	-49.761338	61.338433	57.470260	6.006811	17.346789	5.056548	-7.917621	-4.074950	8.167373	-4.785868	-5.053373	-1.684262	53.218805	-54.230066	-41.626715	56.595697	6.508159	1.499486	-25.000000	
1.5000	1.305398	-1.177020	-7.900424	-0.083418	1.048931	0.001975	-13.666558	-7.075411	-14.297968	-1.091156	6.294418	0.315677	53.036029	-49.775318	61.337619	57.468080	6.012727	17.347008	5.055596	-7.923611	-4.091489	8.184782	-4.781786	-5.083184	-1.696462	53.191203	-54.242158	-41.636405	56.580808	6.523478	1.483585	-25.000000	
1.5100	1.281960	-1.188645	-7.858710	-0.083534	1.048970	0.002008	-13.678934	-7.080363	-14.320517	-1.094793	6.290225	0.320271	53.025352	-49.786892	61.337934	57.475128	6.020448	17.350883	5.055930	-7.929526	-4.107854	8.201286	-4.777185	-5.111179	-1.708131	53.170555	-54.255880	-41.644407	56.558186	6.542014	1.461745	-25.000000	
1.5200	1.255318	-1.199630	-7.814966	-0.083633	1.049023	0.002035	-13.691270	-7.084633	-14.342359	-1.098414	6.287722	0.324288	53.014224	-49.796236	61.340167	57.490251	6.031013	17.358407	5.058276	-7.935078	-4.124470	8.216810	-4.772027	-5.138272	-1.719636	53.155521	-54.270736	-41.652529	56.530457	6.564747	1.432910	-25.000000	
1.5300	1.227353	-1.209573	-7.771184	-0.083716	1.049082	0.002060	-13.703285	-7.087820	-14.362404	-1.102088	6.288316	0.327148	53.005000	-49.802647	61.344733	57.512119	6.045775	17.369808	5.063583	-7.939741	-4.140206	8.230191	-4.766883	-5.163202	-1.730155	53.148275	-54.286335	-41.661670	56.499685	6.592767	1.395306	-25.000000	
1.5400	1.201363	-1.216598	-7.727563	-0.083787	1.049154	0.002071	-13.714939	-7.090645	-14.379867	-1.106757	6.292997	0.328735	53.000269	-49.805849	61.353271	57.536386	6.067936	17.385020	5.073894	-7.942981	-4.155451	8.240807	-4.761676	-5.186734	-1.739846	53.147622	-54.300966	-41.675780	56.473192	6.629006	1.345060	-25.000000	
1.5500	1.178577	-1.220918	-7.684889	-0.083841	1.049236	0.002076	-13.726761	-7.092616	-14.395353	-1.112340	6.302663	0.328898	53.001496	-49.806268	61.368465	57.563870	6.101880	17.406039	5.092043	-7.944427	-4.170165	8.248053	-4.756638	-5.209450	-1.748675	53.156325	-54.315390	-41.697871	56.452225	6.678638	1.274593	-25.000000	
1.5600	1.160715	-1.219179	-7.643212	-0.083889	1.049330	0.002064	-13.739586	-7.093346	-14.408745	-1.119539	6.320413	0.326726	53.013012	-49.803128	61.398863	57.597104	6.161122	17.439102	5.126916	-7.942826	-4.186478	8.249962	-4.750814	-5.233658	-1.757172	53.180314	-54.329162	-41.738183	56.443540	6.757372	1.160695	-25.000000	
1.5700	1.148184	-1.213032	-7.602137	-0.083916	1.049428	0.002049	-13.755304	-7.091534	-14.422608	-1.127968	6.348324	0.321664	53.037956	-49.798031	61.449100	57.638524	6.254367	17.488298	5.183751	-7.937718	-4.204537	8.246312	-4.744840	-5.261254	-1.765633	53.225205	-54.345243	-41.802202	56.447320	6.876156	0.987573	-25.000000	
1.5800	1.142896	-1.200890	-7.550674	-0.083934	1.049538	0.002041	-13.784133	-7.084009	-14.447518	-1.140534	6.402010	0.309905	53.096166	-49.793440	61.553150	57.703332	6.443414	17.583251	5.300359	-7.925442	-4.233354	8.234115	-4.736746	-5.308582	-1.778237	53.322724	-54.373943	-41.930938	56.466432	7.112174	0.641642	-25.000000	
